<svg xmlns="http://www.w3.org/2000/svg" viewBox="4 4 56 56" role="img" aria-labelledby="title">
  <title id="title">audio-tag</title>
  <defs>
    <linearGradient id="fill" x1="8" y1="12" x2="58" y2="52" gradientUnits="userSpaceOnUse">
      <stop offset="0" stop-color="#3b82f6"/>
      <stop offset="1" stop-color="#7c3aed"/>
    </linearGradient>
  </defs>
  <!-- the tag: rounded body, pointed left end, a hole for the string -->
  <path fill="url(#fill)" fill-rule="evenodd" d="M23 12H52a7 7 0 0 1 7 7V45a7 7 0 0 1-7 7H23a3 3 0 0 1-2.2-1L6.6 35.4a5 5 0 0 1 0-6.8L20.8 13a3 3 0 0 1 2.2-1ZM16.5 32a3.8 3.8 0 1 0 7.6 0 3.8 3.8 0 1 0-7.6 0Z"/>
  <!-- the audio: four waveform bars -->
  <g fill="#fff">
    <rect x="29" y="25" width="4.5" height="14" rx="2.25"/>
    <rect x="36" y="19" width="4.5" height="26" rx="2.25"/>
    <rect x="43" y="23" width="4.5" height="18" rx="2.25"/>
    <rect x="50" y="27.5" width="4.5" height="9" rx="2.25"/>
  </g>
</svg>
